<svg data-v-0dd9719b="" version="1.0" xmlns="http://www.w3.org/2000/svg" xmlns:xlink="http://www.w3.org/1999/xlink" width="100%" height="100%" viewBox="70 43 220.000000 150.000000" preserveAspectRatio="xMidYMid meet" color-interpolation-filters="sRGB" style="margin: auto;"><g data-v-0dd9719b="" fill="#333" class="iconlinesvg-g iconlinesvg" transform="translate(80.51091527938843,100.09468841552734)"><g class="tp-name" transform="matrix(1,0,0,1,0,0)" opacity="1"><g transform="translate(0, 0)"><g data-gra="path-name" fill="#333" transform="scale(1)"><path d="M7.86-33.34L4.08-33.34L4.08 0L26.04 0L26.04-3.63L7.86-3.63Z" transform="translate(-4.079462786793509, 35.25461667599329)"></path></g></g><g transform="translate(25, 0)"><g data-gra="path-name" fill="#333" transform="scale(1)"><path d="M3.27-25.18L3.27 0L7.05 0L7.05-25.18ZM7.20-34.35L3.12-34.35L3.12-29.41L7.20-29.41Z" transform="translate(-3.122551762730834, 35.25461667599329)"></path></g></g><g transform="translate(33, 0)"><g data-gra="path-name" fill="#333" transform="scale(1)"><path d="M28.25-12.59C28.25-19.82 23.28-25.58 16.07-25.58C12.10-25.58 9.10-24.09 7.05-21.10L7.05-35.25L3.27-35.25L3.27 0L7.05 0L7.05-4.03C9.07-1.07 11.98 0.40 15.79 0.40C23.24 0.40 28.25-5.21 28.25-12.59ZM15.56-3.02C10.20-3.02 6.85-7.15 6.85-12.59C6.85-18.03 10.20-22.16 15.56-22.16C20.89-22.16 24.48-18.03 24.48-12.59C24.48-7.15 20.89-3.02 15.56-3.02Z" transform="translate(-3.2736429770565194, 35.25461667599329)"></path></g></g><g transform="translate(61, 0)"><g data-gra="path-name" fill="#333" transform="scale(1)"><path d="M7.86-29.71L28.61-29.71L28.61-33.34L4.08-33.34L4.08 0L28.61 0L28.61-3.63L7.86-3.63L7.86-14.86L26.39-14.86L26.39-18.53L7.86-18.53Z" transform="translate(-4.079462786793509, 35.25461667599329)"></path></g></g><g transform="translate(89, 2.217308772957095)"><g><g class="imagesvg"><g><rect fill="#333" fill-opacity="0" stroke-width="2" x="0" y="0" width="36.60667523984361" height="31.222909034947595" class="image-rect"></rect> <svg filter="url(#colors8984945015)" x="0" y="0" width="36.60667523984361" height="31.222909034947595" filtersec="colorsf8334329730" class="image-svg-svg primary" style="overflow: visible;"><svg xmlns="http://www.w3.org/2000/svg" viewBox="0.7522094249725342 0.627500057220459 98.48859405517578 84.00350189208984"><path fill="#333333" d="M87.86 61.737l10.971 18.52c1.146 1.931-.248 4.374-2.49 4.374H74.3l13.56-22.894zM84.5 56.05L67.567 84.624H50.373l25.523-43.076L84.5 56.05zM72.535 35.87l-28.89 48.755H26.45l37.488-63.259 8.597 14.504zm-11.964-20.19L19.716 84.624H3.653c-2.243 0-3.637-2.442-2.491-4.374L47.509 2.045c1.125-1.89 3.864-1.89 4.982 0l8.08 13.634z"></path></svg></svg> <defs><filter id="colors8984945015"><feColorMatrix type="matrix" values="0 0 0 0 0.19921875  0 0 0 0 0.19921875  0 0 0 0 0.19921875  0 0 0 1 0" class="icon-fecolormatrix"></feColorMatrix></filter> <filter id="colorsf8334329730"><feColorMatrix type="matrix" values="0 0 0 0 0.99609375  0 0 0 0 0.99609375  0 0 0 0 0.99609375  0 0 0 1 0" class="icon-fecolormatrix"></feColorMatrix></filter> <filter id="colorsb9773814424"><feColorMatrix type="matrix" values="0 0 0 0 0  0 0 0 0 0  0 0 0 0 0  0 0 0 1 0" class="icon-fecolormatrix"></feColorMatrix></filter></defs></g></g></g></g><g transform="translate(129, 0)"><g data-gra="path-name" fill="#333" transform="scale(1)"><path d="M2.17-18.38C2.17-16.84 2.58-15.63 3.40-14.76C5.89-12.11 10.58-11.69 14.61-10.55C16.62-9.98 18.94-9.16 18.94-6.80C18.94-3.67 15.39-2.82 11.96-2.82C8.24-2.82 5.74-4.90 5.44-7.91L1.51-7.91C1.65-5.52 2.62-3.59 4.43-2.12C6.41-0.44 9.08 0.40 12.44 0.40C18.10 0.40 22.71-1.79 22.71-7.15C22.71-8.73 22.30-9.97 21.48-10.88C19.01-13.60 14.37-14.05 10.27-15.16C8.28-15.70 5.94-16.44 5.94-18.74C5.94-21.15 7.88-22.36 11.76-22.36C15.64-22.36 17.74-21.05 18.08-18.43L21.91-18.43C21.36-23.18 17.41-25.58 12.04-25.58C6.38-25.58 2.17-23.59 2.17-18.38Z" transform="translate(-1.5109121432568549, 35.25461667599329)"></path></g></g><g transform="translate(154, 0)"><g data-gra="path-name" fill="#333" transform="scale(1)"><path d="M25.94-7.25L21.81-7.25C20.33-4.43 17.90-3.02 14.50-3.02C9.50-3.02 6.12-6.54 5.59-11.08L26.69-11.08L26.69-12.59C26.69-20.11 21.62-25.58 14.20-25.58C6.79-25.58 1.71-20.11 1.71-12.59C1.71-5.13 7.02 0.40 14.45 0.40C20.55 0.40 24.24-2.81 25.94-7.25ZM22.76-14.61L5.64-14.61C6.29-18.89 9.45-22.16 14.20-22.16C18.96-22.16 22.12-18.89 22.76-14.61Z" transform="translate(-1.7123670956911026, 35.25461667599329)"></path></g></g></g> <g data-gra="path-slogan" fill-rule="" class="tp-slogan" fill="#333" transform="matrix(1,0,0,1,86.11854815483093,41.65000534057617)" opacity="1"><!----> <!----> <g transform="scale(1, 1)"><g transform="scale(1)"><path d="M3.98 0.14C4.48 0.14 4.93 0.05 5.35-0.14C5.76-0.34 6.11-0.61 6.41-0.97C6.71-1.32 6.95-1.75 7.11-2.26C7.27-2.77 7.36-3.34 7.36-3.97C7.36-4.60 7.27-5.16 7.11-5.66C6.95-6.16 6.71-6.58 6.41-6.93C6.11-7.28 5.76-7.55 5.35-7.73C4.93-7.92 4.48-8.02 3.98-8.02C3.49-8.02 3.03-7.92 2.62-7.74C2.21-7.56 1.86-7.29 1.56-6.94C1.26-6.59 1.03-6.17 0.87-5.67C0.71-5.17 0.62-4.60 0.62-3.97C0.62-3.34 0.71-2.77 0.87-2.26C1.03-1.75 1.26-1.32 1.56-0.97C1.86-0.61 2.21-0.34 2.62-0.14C3.03 0.05 3.49 0.14 3.98 0.14ZM3.98-0.73C3.63-0.73 3.31-0.81 3.03-0.96C2.75-1.11 2.50-1.33 2.30-1.61C2.09-1.90 1.94-2.24 1.82-2.63C1.71-3.03 1.66-3.48 1.66-3.97C1.66-4.46 1.71-4.90 1.82-5.29C1.94-5.68 2.09-6.02 2.30-6.29C2.50-6.56 2.75-6.77 3.03-6.92C3.31-7.07 3.63-7.14 3.98-7.14C4.34-7.14 4.65-7.07 4.94-6.92C5.22-6.77 5.47-6.56 5.67-6.29C5.87-6.02 6.03-5.68 6.14-5.29C6.26-4.90 6.31-4.46 6.31-3.97C6.31-3.48 6.26-3.03 6.14-2.63C6.03-2.24 5.87-1.90 5.67-1.61C5.47-1.33 5.22-1.11 4.94-0.96C4.65-0.81 4.34-0.73 3.98-0.73Z" transform="translate(-0.624, 8.016)"></path></g></g></g></g></svg>