<svg data-v-0dd9719b="" version="1.0" xmlns="http://www.w3.org/2000/svg" xmlns:xlink="http://www.w3.org/1999/xlink" width="100%" height="100%" viewBox="0 0 260.000000 250.000000" preserveAspectRatio="xMidYMid meet" color-interpolation-filters="sRGB" style="margin: auto;"> <rect data-v-0dd9719b="" x="0" y="0" width="100%" height="100%" fill="#ffffff" fill-opacity="0" class="background"></rect> <rect data-v-0dd9719b="" x="0" y="0" width="100%" height="100%" fill="url(#watermark)" fill-opacity="1" class="watermarklayer"></rect> <g data-v-0dd9719b="" fill="#38b137" class="iconlinesvg-g iconlinesvg" transform="translate(82.41868495941162,104.86393165588379)"><g class="tp-name" opacity="1" transform="matrix(1,0,0,1,0,0)"><g transform="translate(0, 3.309270319397566)"><g data-gra="path-name" fill="#38b137" transform="scale(1)"><path d="M3.69-32.72L3.69 0L9.16 0C17.29 0 28.28-2.38 28.28-16.36C28.28-30.90 17.11-32.72 9.16-32.72ZM9.16-5.33L9.16-27.39C9.16-27.39 22.76-29.45 22.76-16.36C22.76-3.46 9.16-5.33 9.16-5.33Z" transform="translate(-3.6925473902882375, 33.186185406387956)"></path></g></g><g transform="translate(28, 0)"><g><g class="imagesvg"><g><rect fill="#38b137" fill-opacity="0" stroke-width="2" x="0" y="0" width="40.27213710724489" height="40.27213710724489" class="image-rect"></rect> <svg filter="url(#colors817009356)" x="0" y="0" width="40.27213710724489" height="40.27213710724489" filtersec="colorsf4083874467" class="image-svg-svg primary" style="overflow: visible;"><svg xmlns="http://www.w3.org/2000/svg" viewBox="1.25 1.25 97.5 97.5"><path fill="#333333" d="M18.58 87.27C7.98 78.33 1.25 64.95 1.25 50 1.25 23.08 23.08 1.25 50 1.25S98.75 23.08 98.75 50c0 14.95-6.73 28.33-17.33 37.27a37.081 37.081 0 0 0 5.86-20.07c0-20.59-16.69-37.28-37.28-37.28s-37.28 16.7-37.28 37.29c0 7.38 2.15 14.27 5.86 20.06z"></path><path fill="#333333" d="M28.96 90.71c-6.45-5.78-10.51-14.17-10.51-23.51 0-17.42 14.12-31.54 31.54-31.54S81.53 49.78 81.53 67.2c0 9.34-4.06 17.73-10.51 23.51 1.23-2.81 1.91-5.91 1.91-9.17C72.94 68.87 62.67 58.6 50 58.6S27.06 68.87 27.06 81.54c0 3.26.68 6.36 1.9 9.17z"></path><circle fill="#333333" cx="50" cy="81.54" r="17.21"></circle></svg></svg> <defs><filter id="colors817009356"><feColorMatrix type="matrix" values="0 0 0 0 0.19921875  0 0 0 0 0.19921875  0 0 0 0 0.19921875  0 0 0 1 0" class="icon-fecolormatrix"></feColorMatrix></filter> <filter id="colorsf4083874467"><feColorMatrix type="matrix" values="0 0 0 0 0.99609375  0 0 0 0 0.99609375  0 0 0 0 0.99609375  0 0 0 1 0" class="icon-fecolormatrix"></feColorMatrix></filter> <filter id="colorsb8182826648"><feColorMatrix type="matrix" values="0 0 0 0 0  0 0 0 0 0  0 0 0 0 0  0 0 0 1 0" class="icon-fecolormatrix"></feColorMatrix></filter></defs></g></g></g></g><g transform="translate(72, 3.309270319397566)"><g data-gra="path-name" fill="#38b137" transform="scale(1)"><path d="M18.56-18.60L18.56-13.79L27.25-13.79L27.25-8.69C25.24-6.40 22.34-5.00 19.07-5.00C13.04-5.00 8.18-8.37 8.18-16.36C8.18-23.51 13.04-27.72 19.07-27.72C22.06-27.72 24.82-26.50 26.78-24.54L30.62-28.37C27.67-31.36 23.60-33.19 19.07-33.19C10.05-33.19 2.71-26.08 2.71-16.36C2.71-5.66 9.58 0.47 18.37 0.47C22.25 0.47 25.01-0.47 27.67-2.94L27.95 0.05L32.72 0.05L32.72-18.60Z" transform="translate(-2.710984159958453, 33.186185406387956)"></path></g></g><g transform="translate(106, 3.309270319397566)"><g data-gra="path-name" fill="#38b137" transform="scale(1)"><path d="M14.58-32.72L3.69-32.72L3.69-27.25L8.88-19.07L3.69-19.07L3.69 0L9.16 0L9.16-13.65L14.58-13.65C14.58-13.65 25.47-13.65 25.47-23.18C25.47-32.72 14.58-32.72 14.58-32.72ZM15.28-19.12L10.19-27.25L14.58-27.25C14.58-27.25 20.05-27.25 20.05-23.18C20.05-20.01 16.73-19.30 15.28-19.12Z" transform="translate(-3.6925473902882375, 33.186185406387956)"></path></g></g><g transform="translate(131, 3.309270319397566)"><g data-gra="path-name" fill="#38b137" transform="scale(1)"><path d="M25.52-27.25L25.52-32.72L3.69-32.72L3.69 0L25.52 0L25.52-5.47L9.16-5.47L9.16-13.65L22.76-13.65L22.76-19.07L9.16-19.07L9.16-27.25Z" transform="translate(-3.692547390288237, 33.186185406387956)"></path></g></g><g transform="translate(156, 3.309270319397566)"><g data-gra="path-name" fill="#38b137" transform="scale(1)"><path d="M20.10-32.72L0.93-32.72L0.93-27.72L7.81-27.72L7.81 0L13.23 0L13.23-27.72L20.10-27.72Z" transform="translate(-0.9348221241236044, 33.186185406387956)"></path></g></g></g> <!----></g><defs v-gra="od"></defs></svg>