<svg xmlns="http://www.w3.org/2000/svg" filter="url(#colors817009356)" x="0" y="0" width="40.27213710724489" height="40.27213710724489" filtersec="colorsf4083874467" class="image-svg-svg primary" style="overflow: visible;"><svg xmlns="http://www.w3.org/2000/svg" viewBox="1.25 1.25 97.5 97.5"><path fill="#333333" d="M18.58 87.27C7.98 78.33 1.25 64.95 1.25 50 1.25 23.08 23.08 1.25 50 1.25S98.75 23.08 98.75 50c0 14.95-6.73 28.33-17.33 37.27a37.081 37.081 0 0 0 5.86-20.07c0-20.59-16.69-37.28-37.28-37.28s-37.28 16.7-37.28 37.29c0 7.38 2.15 14.27 5.86 20.06z"/><path fill="#333333" d="M28.96 90.71c-6.45-5.78-10.51-14.17-10.51-23.51 0-17.42 14.12-31.54 31.54-31.54S81.53 49.78 81.53 67.2c0 9.34-4.06 17.73-10.51 23.51 1.23-2.81 1.91-5.91 1.91-9.17C72.94 68.87 62.67 58.6 50 58.6S27.06 68.87 27.06 81.54c0 3.26.68 6.36 1.9 9.17z"/><circle fill="#333333" cx="50" cy="81.54" r="17.21"/></svg></svg>